<svg xmlns="http://www.w3.org/2000/svg" width="80" height="20"><g data-name="Group 1" clip-path="url(&quot;#a&quot;)"><path d="M48.277 0H38.03v4.69h10.248c2.974 0 5.393 2.382 5.393 5.31 0 2.927-2.419 5.309-5.393 5.309H38.03v4.69h10.248C53.88 20 58.435 15.515 58.435 10S53.88 0 48.277 0" fill-rule="evenodd" data-name="Path 1"/><path d="M21.767 4.69V0H0v4.69h8.5V20h4.765V4.69h8.5Z" fill-rule="evenodd" data-name="Path 2"/><path d="M27.16 0h-2.383v4.69h2.383c2.973 0 5.392 2.382 5.392 5.31 0 2.927-2.419 5.309-5.392 5.309-2.974 0-5.394-2.382-5.394-5.309V7.655h-4.765V10c0 5.514 4.557 10 10.159 10 5.601 0 10.158-4.486 10.158-10S32.76 0 27.16 0" fill-rule="evenodd" data-name="Path 3"/><path d="M69.841 0C64.24 0 59.684 4.486 59.684 10S64.24 20 69.84 20C75.443 20 80 15.514 80 10S75.443 0 69.841 0m0 15.309c-2.973 0-5.392-2.382-5.392-5.31 0-2.927 2.419-5.308 5.392-5.308 2.974 0 5.394 2.381 5.394 5.309 0 2.927-2.42 5.309-5.394 5.309" fill-rule="evenodd" data-name="Path 4"/></g><defs><clipPath id="a"><path d="M0 0h80v20H0V0z" data-name="Rectangle 1"/></clipPath></defs></svg>